<svg width="992" height="599" viewBox="0 0 992 599" fill="none" xmlns="http://www.w3.org/2000/svg">
<g opacity="0.2" clip-path="url(#clip0_1_325)">
<g opacity="0.5">
<mask id="path-1-inside-1_1_325" fill="white">
<path d="M1412.05 567.652V534.493H1326.1V509.229H1307.94C1314.42 501.65 1318.68 491.913 1318.68 481.123C1318.68 467.333 1312.63 456.122 1292.47 448.016C1280.63 443.227 1276.73 436.174 1275.52 432.963C1277.36 432.753 1278.89 431.963 1278.89 430.858C1278.89 429.858 1277.57 429.174 1275.94 428.858L1275.68 421.173C1276.2 421.015 1276.68 420.752 1276.68 420.331C1276.68 419.91 1276.2 419.7 1275.63 419.542L1275.36 411.91C1277.99 412.489 1280.78 412.647 1283.52 411.699C1287.63 410.278 1290.73 407.383 1292.47 403.804C1290.99 405.067 1289.31 406.067 1287.36 406.699C1279.31 409.436 1270.52 405.067 1267.78 397.014C1266.41 393.014 1266.84 388.856 1268.52 385.33C1263.89 389.33 1261.84 395.857 1263.94 402.015C1265.68 407.12 1269.84 410.436 1274.68 411.752L1274.2 419.489C1273.47 419.647 1272.94 419.91 1272.94 420.384C1272.94 420.857 1273.47 421.121 1274.15 421.279L1273.68 428.858C1271.99 429.174 1270.68 429.858 1270.68 430.91C1270.68 432.068 1272.26 432.911 1274.26 433.068C1273.05 436.332 1269.15 443.332 1257.31 448.069C1250.99 450.595 1246.2 453.49 1242.36 456.648L1239.83 375.751H1241.78L1251.89 360.697H1239.36L1236.78 279.063H1238.94L1247.41 264.01H1236.26L1234.99 224.64H1235.2C1238.62 221.587 1240.78 217.113 1240.78 212.166C1240.78 204.481 1229.41 198.06 1225.41 196.06C1226.31 195.533 1226.99 194.744 1226.99 193.691C1226.99 192.481 1226.1 191.586 1225.04 191.165L1224.83 181.743C1225.36 181.428 1225.83 180.954 1225.83 180.27C1225.83 179.585 1225.36 179.059 1224.78 178.743L1224.68 173.954C1227.68 173.848 1230.31 172.164 1231.62 169.69C1230.47 170.322 1229.15 170.69 1227.78 170.69C1223.41 170.69 1219.89 167.164 1219.89 162.795C1219.89 161.269 1220.36 159.795 1221.1 158.585C1218.31 159.848 1216.36 162.69 1216.36 165.901C1216.36 169.954 1219.41 173.164 1223.31 173.743L1223.2 178.691C1222.62 179.007 1222.15 179.48 1222.15 180.217C1222.15 180.954 1222.57 181.375 1223.15 181.691L1222.94 191.112C1221.83 191.533 1220.99 192.428 1220.99 193.639C1220.99 194.744 1221.68 195.481 1222.52 196.007C1218.57 198.007 1207.15 204.428 1207.15 212.113C1207.15 217.061 1209.31 221.482 1212.73 224.587H1212.94L1211.68 263.957H1200.52L1208.99 279.01H1211.15L1208.57 360.645H1196.1L1206.2 375.698H1208.15L1205.57 457.332H1205.2C1198.73 441.542 1184.15 430.174 1166.62 427.963C1166.62 427.752 1166.73 427.595 1166.73 427.384C1166.73 424.963 1163.62 422.91 1161.83 421.91L1161.31 394.646C1161.31 394.278 1161.04 394.014 1160.62 393.962C1160.25 393.962 1159.94 394.278 1159.94 394.646L1159.41 421.91C1157.62 422.91 1154.52 424.963 1154.52 427.384C1154.52 427.595 1154.62 427.805 1154.62 427.963C1141.73 429.595 1130.51 436.174 1122.88 445.911V389.488H1122.94C1122.94 385.014 1126.73 372.593 1119.94 361.961C1108.94 344.749 1083.3 337.223 1070.25 327.749C1070.51 327.117 1070.67 326.486 1070.67 325.749C1070.67 323.485 1069.3 321.591 1067.35 320.854L1066.41 293.221C1066.41 292.695 1065.93 292.274 1065.41 292.221C1064.83 292.221 1064.35 292.642 1064.35 293.221L1063.41 320.854C1061.46 321.643 1060.04 323.538 1060.04 325.749C1060.04 326.433 1060.2 327.117 1060.46 327.749C1048.2 336.644 1025.09 343.96 1013.19 359.013L1010.19 264.273H1012.56L1024.88 245.956H1009.67L1006.56 146.584H1009.19L1019.51 128.268H1005.93L1004.41 80.3713H1004.62C1008.77 76.6343 1011.41 71.2131 1011.41 65.2129C1011.41 55.8441 997.51 48.0543 992.72 45.6332C993.773 45.0016 994.615 44.0542 994.615 42.7384C994.615 41.212 993.563 40.1593 992.247 39.633L992.036 28.2115C992.72 27.8431 993.247 27.2115 993.247 26.422C993.247 25.6325 992.668 24.9482 991.984 24.5798L991.878 18.7901C995.563 18.6849 998.721 16.5795 1000.3 13.5268C998.931 14.3163 997.299 14.79 995.563 14.79C990.247 14.79 985.983 10.474 985.983 5.21067C985.983 3.31587 986.562 1.57896 987.457 0.105225C984.089 1.68423 981.72 5.05277 981.72 9.05292C981.72 14.0005 985.404 17.8953 990.141 18.5796L990.036 24.6324C989.352 25.0009 988.773 25.6325 988.773 26.4746C988.773 27.3167 989.299 27.8957 989.983 28.2641L989.773 39.6856C988.457 40.212 987.404 41.2646 987.404 42.791C987.404 44.1068 988.247 45.0542 989.299 45.6858C984.457 48.107 970.614 55.8967 970.614 65.2655C970.614 71.3184 973.246 76.687 977.404 80.424H977.615L976.088 128.32H962.561L972.878 146.637H975.509L972.404 246.009H957.193L969.509 264.325H971.878L969.351 345.013C959.614 327.223 933.613 317.275 919.718 305.064C920.086 304.274 920.297 303.379 920.297 302.432C920.297 299.432 918.297 297.011 915.56 296.221L914.612 257.273C914.612 256.799 914.244 256.378 913.718 256.378C913.191 256.378 912.77 256.799 912.77 257.273L911.823 296.221C909.138 297.063 907.086 299.485 907.086 302.432C907.086 303.379 907.296 304.274 907.665 305.064C895.191 316.064 872.663 325.117 861.189 339.749L858.768 263.325H860.347L868.663 250.904H858.347L856.242 183.586H858.031L865.032 171.164H855.873L854.873 138.689H855.031C857.821 136.163 859.61 132.478 859.61 128.426C859.61 122.11 850.242 116.846 846.978 115.162C847.715 114.741 848.242 114.109 848.242 113.215C848.242 112.162 847.505 111.478 846.662 111.109L846.505 103.372C846.978 103.109 847.294 102.688 847.294 102.162C847.294 101.635 846.926 101.162 846.452 100.898L846.347 96.9509C848.82 96.8982 850.978 95.5298 852.084 93.4244C851.136 93.9508 850.031 94.2666 848.873 94.2666C845.294 94.2666 842.346 91.3717 842.346 87.7926C842.346 86.5294 842.715 85.3189 843.347 84.3188C841.031 85.3715 839.452 87.6874 839.452 90.3717C839.452 93.7402 841.978 96.3719 845.189 96.8456L845.083 100.951C844.61 101.214 844.241 101.635 844.241 102.214C844.241 102.793 844.61 103.214 845.083 103.425L844.926 111.162C844.031 111.53 843.294 112.215 843.294 113.267C843.294 114.162 843.873 114.794 844.557 115.215C841.294 116.846 831.925 122.162 831.925 128.478C831.925 132.531 833.715 136.215 836.557 138.742H836.715L835.715 171.217H826.504L833.504 183.638H835.294L833.188 250.957H822.872L831.188 263.378H832.767L831.346 308.959C831.136 308.327 831.03 307.643 830.767 307.011C812.661 262.167 746.185 240.061 715.71 210.376C716.658 208.744 717.342 206.955 717.342 204.902C717.342 199.955 713.973 195.902 709.447 194.481L708.236 144.321C708.236 144.321 708.71 144.374 708.973 144.374C726.763 144.374 742.29 134.268 749.975 119.531C743.448 123.162 735.869 125.32 727.816 125.32C702.92 125.32 682.656 105.109 682.656 80.1082C682.656 71.2657 685.288 63.0023 689.709 56.002C673.761 63.3181 662.656 79.3713 662.656 98.0562C662.656 122.057 680.972 141.584 704.394 143.9L703.184 194.428C698.657 195.797 695.289 199.849 695.289 204.85C695.289 206.902 695.973 208.692 696.973 210.323C666.445 240.009 600.022 262.115 581.916 306.959C581.6 307.801 581.442 308.748 581.179 309.643L579.705 263.325H581.284L589.6 250.904H579.284L577.179 183.586H578.969L585.969 171.164H576.758L575.758 138.689H575.916C578.758 136.163 580.548 132.478 580.548 128.426C580.548 122.11 571.179 116.794 567.863 115.162C568.6 114.741 569.126 114.109 569.126 113.215C569.126 112.162 568.389 111.478 567.494 111.109L567.336 103.372C567.81 103.109 568.126 102.688 568.126 102.162C568.126 101.635 567.758 101.162 567.284 100.951V97.0035C569.705 96.9509 571.81 95.5824 572.916 93.4771C571.968 94.0034 570.916 94.3192 569.758 94.3192C566.179 94.3192 563.231 91.4244 563.231 87.8453C563.231 86.5821 563.599 85.3715 564.231 84.3715C561.968 85.4241 560.336 87.74 560.336 90.4243C560.336 93.7402 562.863 96.3719 566.073 96.8982L565.968 101.004C565.494 101.267 565.126 101.635 565.126 102.267C565.126 102.898 565.494 103.214 565.915 103.477L565.758 111.215C564.863 111.583 564.179 112.267 564.179 113.32C564.179 114.215 564.705 114.846 565.442 115.267C562.178 116.899 552.81 122.215 552.81 128.531C552.81 132.584 554.599 136.268 557.389 138.795H557.547L556.547 171.269H547.336L554.336 183.691H556.126L554.02 251.009H543.704L552.02 263.431H553.599L551.178 339.644C539.599 325.117 517.335 316.064 504.913 305.169C505.282 304.38 505.492 303.485 505.492 302.537C505.492 299.537 503.492 297.116 500.755 296.327L499.808 257.378C499.808 256.851 499.387 256.483 498.86 256.483C498.334 256.483 497.966 256.904 497.966 257.378L497.018 296.327C494.334 297.169 492.281 299.59 492.281 302.537C492.281 303.485 492.492 304.38 492.86 305.169C478.965 317.38 452.964 327.328 443.227 345.118L440.7 264.431H443.069L455.332 246.114H440.121L437.016 146.742H439.648L449.964 128.426H436.437L434.911 80.5292H435.121C439.279 76.7922 441.911 71.371 441.911 65.3708C441.911 56.002 428.016 48.2122 423.226 45.7911C424.279 45.1595 425.121 44.2121 425.121 42.8963C425.121 41.3699 424.068 40.3172 422.752 39.7909L422.542 28.3694C423.226 28.001 423.752 27.3694 423.752 26.5799C423.752 25.7904 423.173 25.1061 422.489 24.7377L422.384 18.948C426.068 18.8428 429.226 16.79 430.805 13.6847C429.437 14.4742 427.805 14.9479 426.121 14.9479C420.857 14.9479 416.542 10.6319 416.542 5.36858C416.542 3.47377 417.12 1.73686 418.015 0.263125C414.647 1.84213 412.278 5.21067 412.278 9.21082C412.278 14.1584 415.963 18.0532 420.752 18.7901L420.647 24.7903C419.963 25.1588 419.384 25.7904 419.384 26.6325C419.384 27.4746 419.91 28.0536 420.594 28.4221L420.384 39.8435C419.068 40.3699 418.015 41.4225 418.015 42.9489C418.015 44.2647 418.857 45.2121 419.91 45.8437C415.12 48.2649 401.225 56.0546 401.225 65.4234C401.225 71.4763 403.857 76.8449 408.015 80.5819H408.225L406.699 128.478H393.172L403.488 146.795H406.12L403.015 246.167H387.804L400.067 264.483H402.436L399.436 359.224C387.54 344.17 364.434 336.854 352.171 327.959C352.434 327.328 352.592 326.696 352.592 325.959C352.592 323.696 351.223 321.801 349.276 321.064L348.328 293.432C348.328 292.905 347.855 292.484 347.328 292.432C346.749 292.432 346.276 292.853 346.276 293.432L345.328 321.064C343.381 321.854 342.013 323.749 342.013 325.959C342.013 326.643 342.17 327.328 342.434 327.959C329.38 337.486 303.748 345.013 292.748 362.171C285.958 372.803 289.747 385.225 289.747 389.698H289.8V446.122C282.168 436.384 270.957 429.753 258.062 428.174C258.062 427.963 258.167 427.805 258.167 427.595C258.167 425.173 255.009 423.121 253.272 422.121L252.746 394.857C252.746 394.488 252.43 394.172 252.062 394.172C251.693 394.172 251.378 394.488 251.378 394.857L250.851 422.068C249.062 423.068 245.956 425.121 245.956 427.542C245.956 427.752 246.062 427.963 246.062 428.121C228.166 430.384 213.376 442.279 207.113 458.648L204.481 375.856H206.429L216.534 360.803H204.007L201.428 279.168H203.586L212.06 264.115H200.902L199.639 224.745H199.849C203.271 221.692 205.429 217.218 205.429 212.271C205.429 204.586 194.007 198.165 190.06 196.165C190.902 195.639 191.586 194.849 191.586 193.797C191.586 192.586 190.744 191.691 189.638 191.27L189.428 181.849C189.954 181.533 190.428 181.059 190.428 180.375C190.428 179.691 189.954 179.164 189.375 178.849L189.27 174.059C192.27 173.954 194.902 172.269 196.218 169.796C195.112 170.427 193.744 170.796 192.323 170.796C187.954 170.796 184.428 167.269 184.428 162.901C184.428 161.374 184.901 159.901 185.638 158.69C182.849 159.953 180.954 162.795 180.954 166.006C180.954 170.059 184.007 173.269 187.902 173.848L187.796 178.796C187.217 179.112 186.744 179.585 186.744 180.322C186.744 181.059 187.165 181.48 187.744 181.796L187.533 191.217C186.428 191.639 185.586 192.533 185.586 193.744C185.586 194.849 186.27 195.586 187.112 196.112C183.165 198.112 171.743 204.534 171.743 212.218C171.743 217.166 173.901 221.587 177.322 224.692H177.533L176.27 264.062H165.111L173.585 279.115H175.743L173.164 360.75H160.637L170.743 375.803H172.691L170.164 456.701C166.374 453.543 161.585 450.648 155.216 448.122C143.321 443.332 139.479 436.279 138.268 433.068C140.11 432.858 141.637 432.068 141.637 430.963C141.637 429.963 140.321 429.279 138.689 428.963L138.373 421.279C138.9 421.121 139.321 420.857 139.321 420.436C139.321 420.015 138.9 419.805 138.321 419.647L138.058 412.015C140.689 412.594 143.479 412.752 146.216 411.805C150.321 410.383 153.427 407.489 155.164 403.909C153.69 405.173 152.006 406.173 150.058 406.804C142.005 409.541 133.268 405.173 130.478 397.12C129.163 393.12 129.531 388.962 131.215 385.435C126.584 389.435 124.531 395.962 126.636 402.12C128.373 407.225 132.584 410.541 137.426 411.857L136.952 419.594C136.215 419.752 135.637 420.015 135.637 420.489C135.637 420.963 136.163 421.226 136.847 421.384L136.373 428.963C134.689 429.279 133.373 429.963 133.373 431.016C133.373 432.174 134.952 433.016 136.952 433.174C135.742 436.437 131.847 443.437 120.004 448.174C99.8457 456.28 93.7929 467.543 93.7929 481.281C93.7929 492.071 98.0562 501.808 104.53 509.387H86.3189V534.651H0V693.183H1420.63C1490.26 652.234 1344.42 611.759 1412 567.81L1412.05 567.652Z"/>
</mask>
<path d="M1412.05 567.652V534.493H1326.1V509.229H1307.94C1314.42 501.65 1318.68 491.913 1318.68 481.123C1318.68 467.333 1312.63 456.122 1292.47 448.016C1280.63 443.227 1276.73 436.174 1275.52 432.963C1277.36 432.753 1278.89 431.963 1278.89 430.858C1278.89 429.858 1277.57 429.174 1275.94 428.858L1275.68 421.173C1276.2 421.015 1276.68 420.752 1276.68 420.331C1276.68 419.91 1276.2 419.7 1275.63 419.542L1275.36 411.91C1277.99 412.489 1280.78 412.647 1283.52 411.699C1287.63 410.278 1290.73 407.383 1292.47 403.804C1290.99 405.067 1289.31 406.067 1287.36 406.699C1279.31 409.436 1270.52 405.067 1267.78 397.014C1266.41 393.014 1266.84 388.856 1268.52 385.33C1263.89 389.33 1261.84 395.857 1263.94 402.015C1265.68 407.12 1269.84 410.436 1274.68 411.752L1274.2 419.489C1273.47 419.647 1272.94 419.91 1272.94 420.384C1272.94 420.857 1273.47 421.121 1274.15 421.279L1273.68 428.858C1271.99 429.174 1270.68 429.858 1270.68 430.91C1270.68 432.068 1272.26 432.911 1274.26 433.068C1273.05 436.332 1269.15 443.332 1257.31 448.069C1250.99 450.595 1246.2 453.49 1242.36 456.648L1239.83 375.751H1241.78L1251.89 360.697H1239.36L1236.78 279.063H1238.94L1247.41 264.01H1236.26L1234.99 224.64H1235.2C1238.62 221.587 1240.78 217.113 1240.78 212.166C1240.78 204.481 1229.41 198.06 1225.41 196.06C1226.31 195.533 1226.99 194.744 1226.99 193.691C1226.99 192.481 1226.1 191.586 1225.04 191.165L1224.83 181.743C1225.36 181.428 1225.83 180.954 1225.83 180.27C1225.83 179.585 1225.36 179.059 1224.78 178.743L1224.68 173.954C1227.68 173.848 1230.31 172.164 1231.62 169.69C1230.47 170.322 1229.15 170.69 1227.78 170.69C1223.41 170.69 1219.89 167.164 1219.89 162.795C1219.89 161.269 1220.36 159.795 1221.1 158.585C1218.31 159.848 1216.36 162.69 1216.36 165.901C1216.36 169.954 1219.41 173.164 1223.31 173.743L1223.2 178.691C1222.62 179.007 1222.15 179.48 1222.15 180.217C1222.15 180.954 1222.57 181.375 1223.15 181.691L1222.94 191.112C1221.83 191.533 1220.99 192.428 1220.99 193.639C1220.99 194.744 1221.68 195.481 1222.52 196.007C1218.57 198.007 1207.15 204.428 1207.15 212.113C1207.15 217.061 1209.31 221.482 1212.73 224.587H1212.94L1211.68 263.957H1200.52L1208.99 279.01H1211.15L1208.57 360.645H1196.1L1206.2 375.698H1208.15L1205.57 457.332H1205.2C1198.73 441.542 1184.15 430.174 1166.62 427.963C1166.62 427.752 1166.73 427.595 1166.73 427.384C1166.73 424.963 1163.62 422.91 1161.83 421.91L1161.31 394.646C1161.31 394.278 1161.04 394.014 1160.62 393.962C1160.25 393.962 1159.94 394.278 1159.94 394.646L1159.41 421.91C1157.62 422.91 1154.52 424.963 1154.52 427.384C1154.52 427.595 1154.62 427.805 1154.62 427.963C1141.73 429.595 1130.51 436.174 1122.88 445.911V389.488H1122.94C1122.94 385.014 1126.73 372.593 1119.94 361.961C1108.94 344.749 1083.3 337.223 1070.25 327.749C1070.51 327.117 1070.67 326.486 1070.67 325.749C1070.67 323.485 1069.3 321.591 1067.35 320.854L1066.41 293.221C1066.41 292.695 1065.93 292.274 1065.41 292.221C1064.83 292.221 1064.35 292.642 1064.35 293.221L1063.41 320.854C1061.46 321.643 1060.04 323.538 1060.04 325.749C1060.04 326.433 1060.2 327.117 1060.46 327.749C1048.2 336.644 1025.09 343.96 1013.19 359.013L1010.19 264.273H1012.56L1024.88 245.956H1009.67L1006.56 146.584H1009.19L1019.51 128.268H1005.93L1004.41 80.3713H1004.62C1008.77 76.6343 1011.41 71.2131 1011.41 65.2129C1011.41 55.8441 997.51 48.0543 992.72 45.6332C993.773 45.0016 994.615 44.0542 994.615 42.7384C994.615 41.212 993.563 40.1593 992.247 39.633L992.036 28.2115C992.72 27.8431 993.247 27.2115 993.247 26.422C993.247 25.6325 992.668 24.9482 991.984 24.5798L991.878 18.7901C995.563 18.6849 998.721 16.5795 1000.3 13.5268C998.931 14.3163 997.299 14.79 995.563 14.79C990.247 14.79 985.983 10.474 985.983 5.21067C985.983 3.31587 986.562 1.57896 987.457 0.105225C984.089 1.68423 981.72 5.05277 981.72 9.05292C981.72 14.0005 985.404 17.8953 990.141 18.5796L990.036 24.6324C989.352 25.0009 988.773 25.6325 988.773 26.4746C988.773 27.3167 989.299 27.8957 989.983 28.2641L989.773 39.6856C988.457 40.212 987.404 41.2646 987.404 42.791C987.404 44.1068 988.247 45.0542 989.299 45.6858C984.457 48.107 970.614 55.8967 970.614 65.2655C970.614 71.3184 973.246 76.687 977.404 80.424H977.615L976.088 128.32H962.561L972.878 146.637H975.509L972.404 246.009H957.193L969.509 264.325H971.878L969.351 345.013C959.614 327.223 933.613 317.275 919.718 305.064C920.086 304.274 920.297 303.379 920.297 302.432C920.297 299.432 918.297 297.011 915.56 296.221L914.612 257.273C914.612 256.799 914.244 256.378 913.718 256.378C913.191 256.378 912.77 256.799 912.77 257.273L911.823 296.221C909.138 297.063 907.086 299.485 907.086 302.432C907.086 303.379 907.296 304.274 907.665 305.064C895.191 316.064 872.663 325.117 861.189 339.749L858.768 263.325H860.347L868.663 250.904H858.347L856.242 183.586H858.031L865.032 171.164H855.873L854.873 138.689H855.031C857.821 136.163 859.61 132.478 859.61 128.426C859.61 122.11 850.242 116.846 846.978 115.162C847.715 114.741 848.242 114.109 848.242 113.215C848.242 112.162 847.505 111.478 846.662 111.109L846.505 103.372C846.978 103.109 847.294 102.688 847.294 102.162C847.294 101.635 846.926 101.162 846.452 100.898L846.347 96.9509C848.82 96.8982 850.978 95.5298 852.084 93.4244C851.136 93.9508 850.031 94.2666 848.873 94.2666C845.294 94.2666 842.346 91.3717 842.346 87.7926C842.346 86.5294 842.715 85.3189 843.347 84.3188C841.031 85.3715 839.452 87.6874 839.452 90.3717C839.452 93.7402 841.978 96.3719 845.189 96.8456L845.083 100.951C844.61 101.214 844.241 101.635 844.241 102.214C844.241 102.793 844.61 103.214 845.083 103.425L844.926 111.162C844.031 111.53 843.294 112.215 843.294 113.267C843.294 114.162 843.873 114.794 844.557 115.215C841.294 116.846 831.925 122.162 831.925 128.478C831.925 132.531 833.715 136.215 836.557 138.742H836.715L835.715 171.217H826.504L833.504 183.638H835.294L833.188 250.957H822.872L831.188 263.378H832.767L831.346 308.959C831.136 308.327 831.03 307.643 830.767 307.011C812.661 262.167 746.185 240.061 715.71 210.376C716.658 208.744 717.342 206.955 717.342 204.902C717.342 199.955 713.973 195.902 709.447 194.481L708.236 144.321C708.236 144.321 708.71 144.374 708.973 144.374C726.763 144.374 742.29 134.268 749.975 119.531C743.448 123.162 735.869 125.32 727.816 125.32C702.92 125.32 682.656 105.109 682.656 80.1082C682.656 71.2657 685.288 63.0023 689.709 56.002C673.761 63.3181 662.656 79.3713 662.656 98.0562C662.656 122.057 680.972 141.584 704.394 143.9L703.184 194.428C698.657 195.797 695.289 199.849 695.289 204.85C695.289 206.902 695.973 208.692 696.973 210.323C666.445 240.009 600.022 262.115 581.916 306.959C581.6 307.801 581.442 308.748 581.179 309.643L579.705 263.325H581.284L589.6 250.904H579.284L577.179 183.586H578.969L585.969 171.164H576.758L575.758 138.689H575.916C578.758 136.163 580.548 132.478 580.548 128.426C580.548 122.11 571.179 116.794 567.863 115.162C568.6 114.741 569.126 114.109 569.126 113.215C569.126 112.162 568.389 111.478 567.494 111.109L567.336 103.372C567.81 103.109 568.126 102.688 568.126 102.162C568.126 101.635 567.758 101.162 567.284 100.951V97.0035C569.705 96.9509 571.81 95.5824 572.916 93.4771C571.968 94.0034 570.916 94.3192 569.758 94.3192C566.179 94.3192 563.231 91.4244 563.231 87.8453C563.231 86.5821 563.599 85.3715 564.231 84.3715C561.968 85.4241 560.336 87.74 560.336 90.4243C560.336 93.7402 562.863 96.3719 566.073 96.8982L565.968 101.004C565.494 101.267 565.126 101.635 565.126 102.267C565.126 102.898 565.494 103.214 565.915 103.477L565.758 111.215C564.863 111.583 564.179 112.267 564.179 113.32C564.179 114.215 564.705 114.846 565.442 115.267C562.178 116.899 552.81 122.215 552.81 128.531C552.81 132.584 554.599 136.268 557.389 138.795H557.547L556.547 171.269H547.336L554.336 183.691H556.126L554.02 251.009H543.704L552.02 263.431H553.599L551.178 339.644C539.599 325.117 517.335 316.064 504.913 305.169C505.282 304.38 505.492 303.485 505.492 302.537C505.492 299.537 503.492 297.116 500.755 296.327L499.808 257.378C499.808 256.851 499.387 256.483 498.86 256.483C498.334 256.483 497.966 256.904 497.966 257.378L497.018 296.327C494.334 297.169 492.281 299.59 492.281 302.537C492.281 303.485 492.492 304.38 492.86 305.169C478.965 317.38 452.964 327.328 443.227 345.118L440.7 264.431H443.069L455.332 246.114H440.121L437.016 146.742H439.648L449.964 128.426H436.437L434.911 80.5292H435.121C439.279 76.7922 441.911 71.371 441.911 65.3708C441.911 56.002 428.016 48.2122 423.226 45.7911C424.279 45.1595 425.121 44.2121 425.121 42.8963C425.121 41.3699 424.068 40.3172 422.752 39.7909L422.542 28.3694C423.226 28.001 423.752 27.3694 423.752 26.5799C423.752 25.7904 423.173 25.1061 422.489 24.7377L422.384 18.948C426.068 18.8428 429.226 16.79 430.805 13.6847C429.437 14.4742 427.805 14.9479 426.121 14.9479C420.857 14.9479 416.542 10.6319 416.542 5.36858C416.542 3.47377 417.12 1.73686 418.015 0.263125C414.647 1.84213 412.278 5.21067 412.278 9.21082C412.278 14.1584 415.963 18.0532 420.752 18.7901L420.647 24.7903C419.963 25.1588 419.384 25.7904 419.384 26.6325C419.384 27.4746 419.91 28.0536 420.594 28.4221L420.384 39.8435C419.068 40.3699 418.015 41.4225 418.015 42.9489C418.015 44.2647 418.857 45.2121 419.91 45.8437C415.12 48.2649 401.225 56.0546 401.225 65.4234C401.225 71.4763 403.857 76.8449 408.015 80.5819H408.225L406.699 128.478H393.172L403.488 146.795H406.12L403.015 246.167H387.804L400.067 264.483H402.436L399.436 359.224C387.54 344.17 364.434 336.854 352.171 327.959C352.434 327.328 352.592 326.696 352.592 325.959C352.592 323.696 351.223 321.801 349.276 321.064L348.328 293.432C348.328 292.905 347.855 292.484 347.328 292.432C346.749 292.432 346.276 292.853 346.276 293.432L345.328 321.064C343.381 321.854 342.013 323.749 342.013 325.959C342.013 326.643 342.17 327.328 342.434 327.959C329.38 337.486 303.748 345.013 292.748 362.171C285.958 372.803 289.747 385.225 289.747 389.698H289.8V446.122C282.168 436.384 270.957 429.753 258.062 428.174C258.062 427.963 258.167 427.805 258.167 427.595C258.167 425.173 255.009 423.121 253.272 422.121L252.746 394.857C252.746 394.488 252.43 394.172 252.062 394.172C251.693 394.172 251.378 394.488 251.378 394.857L250.851 422.068C249.062 423.068 245.956 425.121 245.956 427.542C245.956 427.752 246.062 427.963 246.062 428.121C228.166 430.384 213.376 442.279 207.113 458.648L204.481 375.856H206.429L216.534 360.803H204.007L201.428 279.168H203.586L212.06 264.115H200.902L199.639 224.745H199.849C203.271 221.692 205.429 217.218 205.429 212.271C205.429 204.586 194.007 198.165 190.06 196.165C190.902 195.639 191.586 194.849 191.586 193.797C191.586 192.586 190.744 191.691 189.638 191.27L189.428 181.849C189.954 181.533 190.428 181.059 190.428 180.375C190.428 179.691 189.954 179.164 189.375 178.849L189.27 174.059C192.27 173.954 194.902 172.269 196.218 169.796C195.112 170.427 193.744 170.796 192.323 170.796C187.954 170.796 184.428 167.269 184.428 162.901C184.428 161.374 184.901 159.901 185.638 158.69C182.849 159.953 180.954 162.795 180.954 166.006C180.954 170.059 184.007 173.269 187.902 173.848L187.796 178.796C187.217 179.112 186.744 179.585 186.744 180.322C186.744 181.059 187.165 181.48 187.744 181.796L187.533 191.217C186.428 191.639 185.586 192.533 185.586 193.744C185.586 194.849 186.27 195.586 187.112 196.112C183.165 198.112 171.743 204.534 171.743 212.218C171.743 217.166 173.901 221.587 177.322 224.692H177.533L176.27 264.062H165.111L173.585 279.115H175.743L173.164 360.75H160.637L170.743 375.803H172.691L170.164 456.701C166.374 453.543 161.585 450.648 155.216 448.122C143.321 443.332 139.479 436.279 138.268 433.068C140.11 432.858 141.637 432.068 141.637 430.963C141.637 429.963 140.321 429.279 138.689 428.963L138.373 421.279C138.9 421.121 139.321 420.857 139.321 420.436C139.321 420.015 138.9 419.805 138.321 419.647L138.058 412.015C140.689 412.594 143.479 412.752 146.216 411.805C150.321 410.383 153.427 407.489 155.164 403.909C153.69 405.173 152.006 406.173 150.058 406.804C142.005 409.541 133.268 405.173 130.478 397.12C129.163 393.12 129.531 388.962 131.215 385.435C126.584 389.435 124.531 395.962 126.636 402.12C128.373 407.225 132.584 410.541 137.426 411.857L136.952 419.594C136.215 419.752 135.637 420.015 135.637 420.489C135.637 420.963 136.163 421.226 136.847 421.384L136.373 428.963C134.689 429.279 133.373 429.963 133.373 431.016C133.373 432.174 134.952 433.016 136.952 433.174C135.742 436.437 131.847 443.437 120.004 448.174C99.8457 456.28 93.7929 467.543 93.7929 481.281C93.7929 492.071 98.0562 501.808 104.53 509.387H86.3189V534.651H0V693.183H1420.63C1490.26 652.234 1344.42 611.759 1412 567.81L1412.05 567.652Z" stroke="white" stroke-width="6" mask="url(#path-1-inside-1_1_325)"/>
</g>
<path d="M1415.42 655.919V632.076H1353.58V613.917H1340.52C1345.21 608.443 1348.21 601.443 1348.21 593.706C1348.21 583.811 1343.84 575.705 1329.36 569.863C1320.84 566.442 1318.05 561.336 1317.15 559.02C1318.47 558.862 1319.57 558.283 1319.57 557.494C1319.57 556.757 1318.63 556.283 1317.47 556.02L1317.26 550.494C1317.63 550.388 1317.94 550.178 1317.94 549.915C1317.94 549.652 1317.63 549.441 1317.21 549.336L1317 543.862C1318.89 544.283 1320.89 544.388 1322.84 543.704C1325.79 542.704 1328.05 540.599 1329.31 538.02C1328.26 538.914 1327.05 539.651 1325.63 540.125C1319.84 542.072 1313.52 538.967 1311.57 533.177C1310.63 530.283 1310.89 527.282 1312.1 524.809C1308.78 527.703 1307.31 532.388 1308.78 536.809C1310 540.441 1313.05 542.862 1316.52 543.809L1316.21 549.388C1315.68 549.494 1315.26 549.704 1315.26 550.02C1315.26 550.336 1315.63 550.546 1316.1 550.652L1315.79 556.126C1314.57 556.336 1313.63 556.862 1313.63 557.599C1313.63 558.441 1314.79 559.02 1316.21 559.126C1315.31 561.442 1312.52 566.494 1304 569.915C1299.47 571.758 1295.99 573.81 1293.26 576.074L1291.42 517.914H1292.78L1300.05 507.071H1291.05L1289.21 448.332H1290.78L1296.89 437.49H1288.89L1287.99 409.173H1288.15C1290.63 406.962 1292.15 403.752 1292.15 400.225C1292.15 394.699 1283.94 390.119 1281.1 388.646C1281.73 388.277 1282.2 387.698 1282.2 386.909C1282.2 386.014 1281.57 385.382 1280.78 385.067L1280.63 378.33C1281.05 378.119 1281.31 377.751 1281.31 377.277C1281.31 376.803 1280.99 376.435 1280.57 376.172V372.75C1282.68 372.698 1284.52 371.487 1285.52 369.698C1284.68 370.171 1283.73 370.435 1282.73 370.435C1279.63 370.435 1277.05 367.908 1277.05 364.75C1277.05 363.645 1277.36 362.592 1277.94 361.75C1275.94 362.645 1274.52 364.698 1274.52 367.013C1274.52 369.908 1276.73 372.224 1279.52 372.645V376.224C1279.05 376.435 1278.68 376.803 1278.68 377.33C1278.68 377.856 1278.99 378.172 1279.42 378.382L1279.26 385.119C1278.47 385.435 1277.84 386.067 1277.84 386.961C1277.84 387.751 1278.31 388.277 1278.94 388.698C1276.1 390.119 1267.89 394.751 1267.89 400.278C1267.89 403.857 1269.41 407.015 1271.89 409.225H1272.05L1271.15 437.542H1263.15L1269.26 448.385H1270.84L1268.99 507.124H1259.99L1267.26 517.966H1268.63L1266.78 576.705H1266.52C1261.89 565.336 1251.36 557.178 1238.78 555.599C1238.78 555.441 1238.89 555.336 1238.89 555.178C1238.89 553.441 1236.62 551.967 1235.36 551.231L1234.99 531.651C1234.99 531.651 1234.78 531.177 1234.52 531.177C1234.26 531.177 1234.05 531.388 1234.05 531.651L1233.68 551.231C1232.41 551.967 1230.15 553.441 1230.15 555.178C1230.15 555.336 1230.2 555.441 1230.26 555.599C1220.99 556.757 1212.94 561.547 1207.41 568.494V527.914C1207.41 524.703 1210.15 515.756 1205.25 508.124C1197.36 495.755 1178.94 490.334 1169.52 483.491C1169.67 483.07 1169.78 482.597 1169.78 482.07C1169.78 480.439 1168.78 479.07 1167.41 478.544L1166.73 458.648C1166.73 458.28 1166.41 457.964 1165.99 457.911C1165.57 457.911 1165.25 458.227 1165.25 458.648L1164.57 478.544C1163.15 479.123 1162.15 480.491 1162.15 482.07C1162.15 482.597 1162.25 483.07 1162.41 483.491C1153.57 489.913 1136.99 495.176 1128.41 505.966L1126.25 437.805H1127.94L1136.78 424.647H1125.83L1123.57 353.171H1125.46L1132.88 340.012H1123.15L1122.04 305.59H1122.2C1125.2 302.906 1127.09 299.011 1127.09 294.695C1127.09 287.958 1117.09 282.379 1113.67 280.589C1114.41 280.115 1115.04 279.431 1115.04 278.484C1115.04 277.379 1114.25 276.642 1113.3 276.273L1113.15 268.062C1113.62 267.799 1113.99 267.378 1113.99 266.747C1113.99 266.115 1113.57 265.694 1113.09 265.431L1112.99 261.273C1115.62 261.22 1117.88 259.694 1119.04 257.483C1118.04 258.062 1116.88 258.378 1115.67 258.378C1111.88 258.378 1108.78 255.272 1108.78 251.483C1108.78 250.114 1109.2 248.851 1109.83 247.798C1107.41 248.904 1105.72 251.378 1105.72 254.22C1105.72 257.746 1108.41 260.588 1111.78 261.115L1111.67 265.431C1111.15 265.694 1110.78 266.115 1110.78 266.747C1110.78 267.378 1111.15 267.747 1111.62 268.062L1111.46 276.273C1110.51 276.642 1109.78 277.431 1109.78 278.484C1109.78 279.431 1110.36 280.115 1111.15 280.589C1107.67 282.326 1097.67 287.958 1097.67 294.695C1097.67 299.011 1099.57 302.906 1102.57 305.59H1102.72L1101.62 340.012H1091.88L1099.3 353.171H1101.2L1098.93 424.647H1087.99L1096.83 437.805H1098.51L1096.67 495.808C1089.67 483.018 1070.93 475.859 1060.99 467.07C1061.25 466.491 1061.41 465.859 1061.41 465.175C1061.41 463.017 1059.99 461.28 1058.04 460.701L1057.35 432.7C1057.35 432.332 1057.09 432.068 1056.72 432.016C1056.35 432.016 1056.04 432.332 1056.04 432.7L1055.35 460.701C1053.41 461.28 1051.99 463.017 1051.99 465.175C1051.99 465.859 1052.14 466.491 1052.41 467.07C1043.41 474.965 1027.25 481.491 1018.98 492.018L1017.25 437.069H1018.41L1024.41 428.121H1016.98L1015.46 379.698H1016.72L1021.77 370.75H1015.2L1014.46 347.434H1014.56C1016.56 345.592 1017.88 342.96 1017.88 340.065C1017.88 335.486 1011.14 331.696 1008.77 330.538C1009.3 330.223 1009.67 329.749 1009.67 329.117C1009.67 328.38 1009.14 327.854 1008.51 327.591L1008.41 322.012C1008.72 321.801 1008.98 321.538 1008.98 321.117C1008.98 320.696 1008.72 320.38 1008.35 320.222V317.38C1010.09 317.327 1011.62 316.327 1012.41 314.854C1011.72 315.222 1010.93 315.433 1010.09 315.433C1007.51 315.433 1005.41 313.327 1005.41 310.748C1005.41 309.853 1005.67 308.959 1006.14 308.274C1004.51 309.011 1003.35 310.696 1003.35 312.643C1003.35 315.064 1005.14 316.959 1007.46 317.275V320.222C1007.04 320.38 1006.77 320.696 1006.77 321.117C1006.77 321.538 1007.04 321.801 1007.35 322.012L1007.25 327.591C1006.62 327.854 1006.09 328.38 1006.09 329.117C1006.09 329.749 1006.51 330.223 1006.98 330.538C1004.62 331.749 997.879 335.539 997.879 340.065C997.879 343.012 999.195 345.644 1001.19 347.434H1001.3L1000.56 370.75H993.931L998.984 379.698H1000.25L998.721 428.121H991.299L997.3 437.069H998.458L997.405 469.859C997.247 469.385 997.194 468.912 996.984 468.438C983.983 436.174 936.14 420.278 914.244 398.909C914.928 397.751 915.455 396.436 915.455 394.962C915.455 391.383 913.034 388.488 909.77 387.488L908.875 351.434C908.875 351.434 909.244 351.486 909.402 351.486C922.192 351.486 933.35 344.223 938.877 333.591C934.192 336.223 928.771 337.749 922.929 337.749C905.033 337.749 890.454 323.222 890.454 305.222C890.454 298.853 892.349 292.905 895.507 287.905C884.032 293.169 876.032 304.695 876.032 318.117C876.032 335.381 889.19 349.381 906.033 351.118L905.138 387.435C901.875 388.435 899.454 391.33 899.454 394.909C899.454 396.383 899.98 397.646 900.665 398.857C878.716 420.226 830.925 436.121 817.925 468.333C817.662 468.964 817.609 469.649 817.398 470.28L816.346 436.963H817.504L823.504 428.016H816.083L814.556 379.593H815.819L820.872 370.645H814.24L813.504 347.328H813.609C815.661 345.486 816.925 342.855 816.925 339.96C816.925 335.381 810.188 331.591 807.819 330.433C808.345 330.117 808.714 329.644 808.714 329.012C808.714 328.275 808.188 327.749 807.556 327.486L807.451 321.906C807.766 321.696 808.03 321.433 808.03 321.012C808.03 320.591 807.766 320.327 807.398 320.117V317.275C809.135 317.275 810.661 316.222 811.451 314.748C810.767 315.117 810.03 315.327 809.188 315.327C806.609 315.327 804.503 313.222 804.503 310.643C804.503 309.748 804.766 308.853 805.24 308.169C803.608 308.906 802.451 310.59 802.451 312.538C802.451 314.959 804.24 316.854 806.556 317.169V320.117C806.135 320.275 805.872 320.591 805.872 321.012C805.872 321.433 806.135 321.696 806.451 321.906L806.345 327.486C805.714 327.749 805.187 328.275 805.187 329.012C805.187 329.644 805.608 330.117 806.082 330.433C803.714 331.644 796.977 335.433 796.977 339.96C796.977 342.907 798.292 345.539 800.293 347.328H800.398L799.661 370.645H793.029L798.082 379.593H799.398L797.871 428.016H790.45L796.45 436.963H797.608L795.871 491.755C787.555 481.333 771.502 474.807 762.607 466.964C762.87 466.385 763.028 465.754 763.028 465.07C763.028 462.912 761.607 461.175 759.659 460.596L758.975 432.595C758.975 432.226 758.659 431.91 758.291 431.91C757.923 431.91 757.607 432.226 757.607 432.595L756.922 460.596C754.975 461.175 753.554 462.912 753.554 465.07C753.554 465.754 753.712 466.385 753.975 466.964C743.975 475.754 725.29 482.912 718.29 495.702L716.447 437.7H718.132L726.974 424.542H716.026L713.763 353.065H715.658L723.079 339.907H713.342L712.237 305.485H712.395C715.395 302.8 717.289 298.906 717.289 294.59C717.289 287.853 707.289 282.273 703.815 280.537C704.605 280.063 705.184 279.379 705.184 278.431C705.184 277.326 704.447 276.589 703.447 276.221L703.289 268.01C703.763 267.747 704.184 267.326 704.184 266.694C704.184 266.062 703.763 265.641 703.236 265.378L703.131 261.22C705.763 261.167 708.079 259.641 709.184 257.43C708.184 258.009 707.026 258.325 705.815 258.325C702.026 258.325 698.92 255.22 698.92 251.43C698.92 250.062 699.341 248.799 699.973 247.746C697.552 248.851 695.868 251.325 695.868 254.167C695.868 257.694 698.552 260.536 701.973 261.062L701.868 265.378C701.342 265.641 700.973 266.062 700.973 266.694C700.973 267.326 701.341 267.694 701.815 268.01L701.657 276.221C700.71 276.589 699.973 277.379 699.973 278.431C699.973 279.379 700.552 280.063 701.342 280.537C697.868 282.273 687.92 287.905 687.92 294.642C687.92 298.958 689.815 302.853 692.815 305.537H692.973L691.867 339.96H682.13L689.552 353.118H691.446L689.183 424.594H678.235L687.078 437.753H688.762L686.604 505.913C678.025 495.123 661.445 489.86 652.603 483.439C652.761 483.018 652.919 482.491 652.919 482.018C652.919 480.386 651.919 479.017 650.498 478.491L649.813 458.596C649.813 458.227 649.498 457.911 649.076 457.859C648.655 457.859 648.34 458.175 648.34 458.596L647.655 478.491C646.234 479.07 645.234 480.439 645.234 482.018C645.234 482.544 645.339 483.018 645.497 483.439C636.076 490.281 617.654 495.702 609.759 508.071C604.864 515.703 607.601 524.651 607.601 527.861V568.442C602.127 561.441 594.022 556.704 584.758 555.547C584.758 555.389 584.864 555.283 584.864 555.125C584.864 553.389 582.6 551.915 581.337 551.178L580.969 531.598C580.969 531.335 580.758 531.125 580.495 531.125C580.232 531.125 580.021 531.335 580.021 531.598L579.653 551.178C578.39 551.915 576.126 553.389 576.126 555.125C576.126 555.283 576.179 555.389 576.232 555.547C563.336 557.178 552.705 565.757 548.231 577.495L546.336 517.914H547.704L554.968 507.071H545.967L544.125 448.332H545.704L551.81 437.49H543.809L542.915 409.173H543.073C545.546 406.962 547.073 403.752 547.073 400.225C547.073 394.699 538.862 390.119 536.02 388.646C536.651 388.277 537.125 387.698 537.125 386.909C537.125 386.014 536.493 385.382 535.704 385.067L535.546 378.277C535.967 378.066 536.23 377.698 536.23 377.224C536.23 376.751 535.914 376.382 535.493 376.119V372.698C537.599 372.645 539.441 371.435 540.388 369.645C539.599 370.119 538.599 370.382 537.599 370.382C534.493 370.382 531.914 367.856 531.914 364.697C531.914 363.592 532.23 362.54 532.809 361.697C530.809 362.592 529.44 364.645 529.44 366.961C529.44 369.856 531.598 372.171 534.441 372.593V376.172C533.967 376.382 533.599 376.751 533.599 377.277C533.599 377.803 533.914 378.119 534.335 378.33L534.177 385.119C533.388 385.435 532.756 386.067 532.756 386.961C532.756 387.751 533.23 388.277 533.862 388.698C531.019 390.119 522.809 394.751 522.809 400.278C522.809 403.857 524.335 407.015 526.809 409.225H526.967L526.072 437.542H518.072L524.177 448.385H525.756L523.914 507.124H514.914L522.177 517.966H523.546L521.703 576.179C518.966 573.916 515.493 571.81 510.966 570.021C502.44 566.6 499.65 561.494 498.755 559.178C500.071 559.02 501.176 558.441 501.176 557.652C501.176 556.915 500.229 556.441 499.071 556.178L498.86 550.652C499.229 550.546 499.545 550.336 499.545 550.073C499.545 549.81 499.229 549.599 498.808 549.494L498.597 544.02C500.492 544.441 502.492 544.546 504.492 543.862C507.44 542.862 509.703 540.757 510.913 538.177C509.861 539.072 508.65 539.809 507.229 540.283C501.439 542.23 495.123 539.125 493.176 533.335C492.229 530.44 492.492 527.44 493.702 524.966C490.386 527.861 488.913 532.546 490.386 536.967C491.65 540.599 494.65 543.02 498.124 543.967L497.808 549.546C497.281 549.652 496.86 549.862 496.86 550.178C496.86 550.494 497.229 550.704 497.702 550.81L497.387 556.283C496.176 556.494 495.229 557.02 495.229 557.757C495.229 558.599 496.387 559.178 497.808 559.284C496.913 561.599 494.123 566.652 485.597 570.073C471.123 575.916 466.754 583.969 466.754 593.916C466.754 601.653 469.807 608.654 474.491 614.128H461.385V632.286H399.541V746.29H1421.21C1471.26 716.816 1366.42 687.762 1415 656.129L1415.42 655.919Z" fill="white"/>
<path opacity="0.5" d="M720.658 623.549V610.127H685.919V599.917H678.551C681.182 596.864 682.867 592.916 682.867 588.548C682.867 582.969 680.393 578.442 672.287 575.179C667.498 573.231 665.919 570.389 665.445 569.073C666.182 568.968 666.813 568.652 666.813 568.231C666.813 567.81 666.287 567.547 665.603 567.442L665.498 564.336C665.498 564.336 665.919 564.178 665.919 564.021C665.919 563.863 665.708 563.757 665.498 563.705L665.392 560.652C666.445 560.862 667.55 560.968 668.708 560.599C670.393 560.02 671.603 558.862 672.34 557.389C671.761 557.915 671.077 558.283 670.287 558.547C667.024 559.652 663.497 557.862 662.392 554.652C661.866 553.02 662.024 551.336 662.708 549.915C660.813 551.546 660.024 554.178 660.866 556.652C661.55 558.705 663.234 560.073 665.234 560.599L665.024 563.705C664.761 563.757 664.498 563.863 664.498 564.073C664.498 564.284 664.708 564.389 664.971 564.442L664.813 567.494C664.129 567.6 663.603 567.915 663.603 568.336C663.603 568.81 664.234 569.126 665.024 569.231C664.55 570.547 662.971 573.389 658.182 575.284C655.603 576.337 653.708 577.495 652.129 578.758L651.076 546.072H651.866L655.971 539.967H650.918L649.865 506.966H650.76L654.181 500.86H649.708L649.181 484.965H649.234C650.602 483.702 651.497 481.912 651.497 479.912C651.497 476.807 646.918 474.228 645.286 473.438C645.655 473.228 645.918 472.912 645.918 472.491C645.918 472.017 645.549 471.649 645.128 471.438V467.649C645.128 467.649 645.444 467.333 645.444 467.07C645.444 466.806 645.234 466.596 645.023 466.438V464.491C646.181 464.491 647.234 463.754 647.813 462.754C647.339 463.017 646.813 463.175 646.234 463.175C644.497 463.175 643.076 461.754 643.076 459.964C643.076 459.332 643.286 458.754 643.549 458.28C642.444 458.806 641.655 459.911 641.655 461.227C641.655 462.859 642.865 464.175 644.444 464.385V466.385C644.181 466.491 643.97 466.701 643.97 467.017C643.97 467.333 644.128 467.491 644.392 467.596V471.386C643.865 471.543 643.549 471.912 643.549 472.438C643.549 472.859 643.813 473.175 644.181 473.386C642.602 474.175 637.97 476.807 637.97 479.912C637.97 481.912 638.865 483.702 640.234 484.965H640.339L639.812 500.86H635.286L638.707 506.966H639.602L638.549 539.967H633.496L637.549 546.072H638.339L637.286 579.074H637.128C634.496 572.705 628.602 568.073 621.549 567.231C621.549 567.126 621.549 567.073 621.549 566.968C621.549 565.968 620.285 565.178 619.549 564.757L619.338 553.757C619.338 553.757 619.233 553.494 619.075 553.494C618.917 553.494 618.812 553.599 618.812 553.757L618.601 564.757C617.864 565.178 616.601 565.968 616.601 566.968C616.601 567.073 616.601 567.126 616.601 567.231C611.39 567.863 606.864 570.547 603.759 574.495V551.704C603.759 549.862 605.285 544.862 602.548 540.599C598.127 533.651 587.758 530.598 582.495 526.756C582.6 526.493 582.652 526.23 582.652 525.966C582.652 525.072 582.073 524.282 581.337 523.966L580.968 512.808C580.968 512.808 580.81 512.44 580.547 512.387C580.337 512.387 580.126 512.545 580.126 512.808L579.758 523.966C578.968 524.282 578.389 525.072 578.389 525.966C578.389 526.23 578.442 526.545 578.547 526.756C573.599 530.335 564.283 533.335 559.441 539.388L558.23 501.123H559.178L564.125 493.702H557.967L556.704 453.543H557.757L561.915 446.121H556.441L555.809 426.752H555.915C557.599 425.226 558.652 423.068 558.652 420.594C558.652 416.805 553.02 413.647 551.072 412.699C551.493 412.436 551.809 412.068 551.809 411.541C551.809 410.91 551.388 410.489 550.862 410.278L550.757 405.646C551.02 405.488 551.23 405.225 551.23 404.909C551.23 404.594 551.02 404.33 550.704 404.173V401.857C552.125 401.857 553.441 400.962 554.072 399.751C553.493 400.067 552.862 400.278 552.178 400.278C550.02 400.278 548.283 398.541 548.283 396.383C548.283 395.646 548.493 394.909 548.862 394.33C547.493 394.962 546.546 396.33 546.546 397.962C546.546 399.962 548.02 401.541 549.967 401.804V404.225C549.651 404.383 549.388 404.646 549.388 404.962C549.388 405.278 549.599 405.541 549.862 405.699L549.757 410.331C549.23 410.541 548.809 410.962 548.809 411.594C548.809 412.12 549.125 412.489 549.546 412.752C547.599 413.752 541.967 416.857 541.967 420.647C541.967 423.068 543.019 425.279 544.704 426.805H544.809L544.177 446.174H538.703L542.862 453.595H543.914L542.651 493.755H536.493L541.44 501.176H542.388L541.335 533.756C537.388 526.545 526.861 522.545 521.282 517.598C521.44 517.282 521.492 516.914 521.492 516.545C521.492 515.335 520.703 514.335 519.598 514.019L519.229 498.281C519.229 498.281 519.071 497.913 518.861 497.913C518.65 497.913 518.492 498.071 518.492 498.281L518.124 514.019C517.018 514.335 516.229 515.335 516.229 516.545C516.229 516.914 516.334 517.282 516.44 517.598C511.387 522.019 502.281 525.703 497.649 531.598L496.702 500.702H497.334L500.702 495.702H496.544L495.702 468.491H496.439L499.281 463.491H495.597L495.176 450.385H495.228C496.386 449.385 497.07 447.858 497.07 446.227C497.07 443.648 493.281 441.542 491.965 440.858C492.228 440.7 492.491 440.437 492.491 440.069C492.491 439.648 492.228 439.384 491.86 439.226V436.068C491.86 436.068 492.123 435.805 492.123 435.595C492.123 435.384 491.965 435.174 491.754 435.068V433.489C492.702 433.489 493.597 432.91 494.018 432.068C493.649 432.279 493.176 432.384 492.754 432.384C491.281 432.384 490.123 431.226 490.123 429.752C490.123 429.226 490.281 428.752 490.544 428.331C489.596 428.752 488.965 429.7 488.965 430.752C488.965 432.121 489.965 433.174 491.281 433.384V435.016C491.281 435.016 490.912 435.279 490.912 435.542C490.912 435.805 491.07 435.911 491.228 436.016V439.121C490.807 439.279 490.491 439.542 490.491 439.963C490.491 440.332 490.702 440.595 491.018 440.753C489.702 441.437 485.912 443.542 485.912 446.121C485.912 447.753 486.649 449.28 487.754 450.28H487.807L487.386 463.385H483.649L486.491 468.385H487.228L486.386 495.597H482.228L485.596 500.597H486.228L485.649 519.019C485.649 519.019 485.544 518.493 485.438 518.229C478.122 500.123 451.279 491.176 438.963 479.175C439.331 478.491 439.647 477.807 439.647 476.965C439.647 474.965 438.279 473.333 436.489 472.754L436.016 452.49C436.016 452.49 436.226 452.49 436.331 452.49C443.542 452.49 449.806 448.437 452.911 442.437C450.279 443.911 447.226 444.806 443.963 444.806C433.91 444.806 425.699 436.647 425.699 426.542C425.699 422.963 426.752 419.647 428.542 416.805C422.12 419.752 417.594 426.226 417.594 433.805C417.594 443.49 425.015 451.385 434.437 452.332L433.963 472.754C432.121 473.333 430.752 474.965 430.752 476.965C430.752 477.807 431.015 478.491 431.436 479.175C419.12 491.176 392.277 500.123 384.961 518.229C384.803 518.598 384.751 518.966 384.645 519.335L384.066 500.597H384.698L388.066 495.597H383.908L383.066 468.385H383.803L386.645 463.385H382.908L382.487 450.28H382.54C383.698 449.28 384.382 447.753 384.382 446.121C384.382 443.542 380.592 441.437 379.277 440.753C379.54 440.595 379.803 440.332 379.803 439.963C379.803 439.542 379.487 439.279 379.171 439.121V436.016C379.171 436.016 379.434 435.753 379.434 435.542C379.434 435.332 379.277 435.121 379.066 435.068V433.489C380.013 433.489 380.908 432.91 381.329 432.068C380.961 432.279 380.54 432.384 380.066 432.384C378.592 432.384 377.434 431.226 377.434 429.752C377.434 429.226 377.592 428.752 377.856 428.331C376.908 428.752 376.276 429.7 376.276 430.752C376.276 432.121 377.277 433.174 378.592 433.384V435.016C378.592 435.016 378.224 435.279 378.224 435.542C378.224 435.805 378.382 435.911 378.54 436.016V439.121C378.119 439.279 377.856 439.542 377.856 439.963C377.856 440.332 378.066 440.595 378.382 440.753C377.066 441.437 373.276 443.542 373.276 446.121C373.276 447.753 374.013 449.28 375.119 450.28H375.171L374.75 463.385H371.013L373.855 468.385H374.592L373.75 495.597H369.592L372.961 500.597H373.592L372.645 531.388C367.96 525.493 358.96 521.861 353.96 517.44C354.118 517.124 354.17 516.756 354.17 516.387C354.17 515.177 353.381 514.177 352.276 513.861L351.907 498.123C351.907 498.123 351.749 497.755 351.539 497.755C351.328 497.755 351.17 497.913 351.17 498.123L350.802 513.861C349.697 514.177 348.907 515.177 348.907 516.387C348.907 516.756 349.012 517.124 349.118 517.44C343.486 522.387 333.012 526.388 329.064 533.598L328.012 501.018H328.959L333.906 493.597H327.748L326.485 453.438H327.538L331.696 446.016H326.222L325.59 426.647H325.696C327.38 425.121 328.433 422.963 328.433 420.489C328.433 416.699 322.801 413.541 320.853 412.594C321.274 412.331 321.643 411.962 321.643 411.436C321.643 410.804 321.222 410.383 320.696 410.173L320.59 405.541C320.853 405.383 321.064 405.173 321.064 404.804C321.064 404.436 320.853 404.225 320.538 404.067V401.751C321.959 401.751 323.275 400.857 323.906 399.646C323.327 399.962 322.696 400.172 322.011 400.172C319.853 400.172 318.116 398.436 318.116 396.278C318.116 395.541 318.327 394.804 318.695 394.225C317.327 394.856 316.38 396.225 316.38 397.857C316.38 399.857 317.853 401.436 319.801 401.699V404.12C319.485 404.278 319.222 404.541 319.222 404.857C319.222 405.173 319.432 405.436 319.695 405.594L319.59 410.225C319.064 410.436 318.643 410.857 318.643 411.489C318.643 412.015 318.959 412.383 319.38 412.647C317.432 413.647 311.853 416.752 311.853 420.542C311.853 422.963 312.906 425.173 314.59 426.7H314.695L314.064 446.069H308.59L312.748 453.49H313.801L312.537 493.65H306.379L311.327 501.071H312.274L311.064 539.335C306.274 533.283 296.905 530.282 291.958 526.703C292.063 526.44 292.116 526.177 292.116 525.914C292.116 525.019 291.537 524.23 290.747 523.914L290.379 512.755C290.379 512.755 290.221 512.387 289.958 512.334C289.747 512.334 289.536 512.492 289.536 512.755L289.168 523.914C288.379 524.23 287.8 525.019 287.8 525.914C287.8 526.177 287.852 526.493 287.957 526.703C282.694 530.546 272.325 533.598 267.904 540.546C265.167 544.862 266.694 549.862 266.694 551.652V574.442C263.588 570.494 259.062 567.81 253.851 567.179C253.851 567.073 253.851 567.021 253.851 566.915C253.851 565.915 252.588 565.126 251.851 564.705L251.64 553.704C251.64 553.704 251.535 553.441 251.377 553.441C251.219 553.441 251.114 553.546 251.114 553.704L250.903 564.705C250.167 565.126 248.903 565.915 248.903 566.915C248.903 567.021 248.903 567.073 248.903 567.179C241.64 568.073 235.692 572.916 233.166 579.495L232.113 546.02H232.903L237.008 539.914H231.955L230.903 506.913H231.798L235.219 500.808H230.692L230.166 484.912H230.219C231.587 483.649 232.482 481.86 232.482 479.86C232.482 476.754 227.85 474.175 226.271 473.333C226.639 473.122 226.903 472.807 226.903 472.386C226.903 471.912 226.534 471.543 226.113 471.333V467.543C226.113 467.543 226.429 467.228 226.429 466.964C226.429 466.701 226.218 466.491 226.008 466.333V464.385C227.166 464.385 228.218 463.648 228.797 462.648C228.324 462.912 227.797 463.069 227.218 463.069C225.481 463.069 224.008 461.648 224.008 459.859C224.008 459.227 224.218 458.648 224.481 458.175C223.376 458.701 222.587 459.806 222.587 461.122C222.587 462.754 223.797 464.069 225.376 464.28V466.28C225.113 466.385 224.903 466.596 224.903 466.912C224.903 467.228 225.06 467.385 225.324 467.491V471.28C224.797 471.438 224.481 471.807 224.481 472.333C224.481 472.754 224.745 473.07 225.113 473.28C223.534 474.07 218.902 476.702 218.902 479.754C218.902 481.754 219.744 483.544 221.166 484.807H221.271L220.744 500.702H216.218L219.639 506.808H220.534L219.481 539.809H214.428L218.481 545.915H219.271L218.218 578.6C216.692 577.337 214.744 576.179 212.165 575.126C207.376 573.179 205.797 570.337 205.323 569.021C206.06 568.915 206.691 568.6 206.691 568.179C206.691 567.757 206.165 567.494 205.481 567.389L205.375 564.284C205.375 564.284 205.744 564.126 205.744 563.968C205.744 563.81 205.586 563.705 205.323 563.652L205.218 560.599C206.27 560.863 207.428 560.915 208.534 560.547C210.165 559.968 211.428 558.81 212.165 557.336C211.586 557.862 210.902 558.231 210.113 558.494C206.849 559.599 203.323 557.81 202.217 554.599C201.691 552.967 201.849 551.283 202.533 549.862C200.638 551.494 199.849 554.125 200.691 556.599C201.375 558.652 203.112 560.02 205.06 560.547L204.849 563.652C204.586 563.705 204.323 563.81 204.323 564.021C204.323 564.231 204.533 564.336 204.797 564.389L204.586 567.442C203.902 567.547 203.375 567.863 203.375 568.284C203.375 568.758 204.007 569.073 204.797 569.179C204.323 570.494 202.744 573.337 197.954 575.231C189.796 578.495 187.375 583.074 187.375 588.6C187.375 592.969 189.112 596.864 191.691 599.969H184.322V610.18H149.584V674.235H723.658C751.817 657.708 692.867 641.339 720.184 623.549H720.658Z" fill="white"/>
</g>
<defs>
<clipPath id="clip0_1_325">
<rect width="1440" height="746.08" fill="white"/>
</clipPath>
</defs>
</svg>
